#!OML:ASF F:\VICON\USERDATA\INSTALL\rory3\rory3.ASF
:FULLY-SPECIFIED
:DEGREES
306
root -8.84888 14.7537 8.76693 14.5133 30.5722 6.83159
lowerback 31.43 2.73628 1.00047
upperback 7.13952 4.28947 2.63298
thorax -9.24504 2.08453 0.759453
lowerneck -14.6242 -10.8216 -7.77837
upperneck 7.73601 -13.7516 6.37593
head 5.66411 -6.54061 1.8777
rclavicle 1.17681e-013 -2.8625e-014
rhumerus -9.72744 -32.3495 -54.1477
rradius 66.1551
rwrist 30.1651
rhand -33.4655 -10.133
rfingers 7.12502
rthumb -6.66365 -40.0082
lclavicle 1.17681e-013 -2.8625e-014
lhumerus -49.0577 30.6967 53.6768
lradius 61.3007
lwrist -3.22556
lhand -30.3825 43.1351
lfingers 7.12502
lthumb -3.68688 73.083
rfemur -71.8591 -18.2731 13.8485
rtibia 78.4077
rfoot -7.0227 2.27142
rtoes 6.03602
lfemur -32.6437 -22.1113 -7.46134
ltibia 74.128
lfoot -26.0547 -14.6697
ltoes -36.528
307
root -8.87721 14.7321 8.83023 14.7679 30.5351 6.77256
lowerback 31.6471 2.68407 1.21435
upperback 7.05708 4.28838 2.57237
thorax -9.42288 2.07478 0.557984
lowerneck -14.711 -10.9206 -7.79905
upperneck 7.65046 -13.8856 6.49461
head 5.67046 -6.59761 1.89865
rclavicle 3.18055e-014 -3.18055e-014
rhumerus -9.79085 -32.3942 -54.2034
rradius 66.2983
rwrist 30.2957
rhand -33.53 -10.0804
rfingers 7.12502
rthumb -6.72585 -39.9536
lclavicle 3.18055e-014 -3.18055e-014
lhumerus -49.1217 30.7059 53.681
lradius 61.0873
lwrist -3.21927
lhand -30.0362 42.7346
lfingers 7.12502
lthumb -3.35244 72.688
rfemur -72.4376 -18.2177 14.2307
rtibia 78.9915
rfoot -7.4012 2.31125
rtoes 4.10423
lfemur -32.8332 -22.0278 -7.09249
ltibia 74.1895
lfoot -26.055 -14.7014
ltoes -36.7095
308
root -8.90515 14.7041 8.89871 15.0176 30.5327 6.86288
lowerback 31.8345 2.64051 1.22363
upperback 7.02425 4.236 2.52815
thorax -9.54488 2.04738 0.514682
lowerneck -14.7768 -10.9266 -7.67459
upperneck 7.49388 -13.9157 6.57355
head 5.63109 -6.60432 1.90218
rclavicle -4.29375e-014 5.24792e-014
rhumerus -9.72661 -32.2665 -54.1797
rradius 66.3796
rwrist 30.2604
rhand -33.5176 -10.4297
rfingers 7.12502
rthumb -6.71394 -40.3032
lclavicle -4.29375e-014 5.24792e-014
lhumerus -49.2724 30.929 53.6529
lradius 60.9059
lwrist -3.44923
lhand -29.704 42.683
lfingers 7.12502
lthumb -3.0316 72.6411
rfemur -72.9428 -18.2565 14.5012
rtibia 79.6163
rfoot -7.68291 2.16436
rtoes 4.79118
lfemur -32.8405 -21.9957 -6.88286
ltibia 74.2069
lfoot -25.9551 -14.7779
ltoes -36.3302
309
root -8.93172 14.6775 8.97178 15.3261 30.6301 7.0414
lowerback 31.7971 2.5825 1.24369
upperback 7.09025 4.15729 2.43664
thorax -9.44115 2.01235 0.432778
lowerneck -14.9192 -11.0662 -7.76631
upperneck 7.37761 -14.1087 6.88431
head 5.6611 -6.67805 1.98215
rclavicle 0 -6.67916e-014
rhumerus -9.68143 -32.4901 -54.3888
rradius 66.6088
rwrist 30.2317
rhand -33.3615 -10.5277
rfingers 7.12502
rthumb -6.56321 -40.406
lclavicle 0 -6.67916e-014
lhumerus -49.2118 31.1811 53.7009
lradius 60.7863
lwrist -3.70885
lhand -29.7708 42.4904
lfingers 7.12502
lthumb -3.09608 72.4477
rfemur -73.4213 -18.4196 14.6803
rtibia 80.2525
rfoot -7.87593 2.11952
rtoes 5.2122
lfemur -32.8945 -21.9926 -6.74466
ltibia 74.1903
lfoot -25.9927 -14.6232
ltoes -36.5628
310
root -8.95859 14.6584 9.04329 15.681 30.6309 7.3451
lowerback 31.7782 2.57001 0.982007
upperback 7.16619 4.05795 2.43204
thorax -9.36097 1.97412 0.618893
lowerneck -15.039 -10.9669 -7.55402
upperneck 7.11627 -13.9641 6.63898
head 5.55323 -6.62052 1.89632
rclavicle 2.06736e-014 7.95139e-015
rhumerus -9.37002 -32.4155 -54.5172
rradius 66.619
rwrist 30.167
rhand -33.4703 -10.5881
rfingers 7.12502
rthumb -6.66822 -40.4631
lclavicle 2.06736e-014 7.95139e-015
lhumerus -49.1275 31.7742 53.7809
lradius 60.3207
lwrist -4.06068
lhand -29.928 42.2324
lfingers 7.12502
lthumb -3.24793 72.1874
rfemur -73.8745 -18.5017 14.7002
rtibia 80.8435
rfoot -8.03926 2.09592
rtoes 5.22977
lfemur -32.9281 -21.8593 -6.80242
ltibia 74.102
lfoot -25.5029 -14.7908
ltoes -35.6573
311
root -8.98163 14.6523 9.11729 15.8485 30.657 7.44973
lowerback 31.9621 2.48509 1.0488
upperback 7.1421 3.96683 2.34794
thorax -9.46369 1.92815 0.512983
lowerneck -14.9009 -10.8669 -6.92695
upperneck 6.67123 -13.8856 6.18776
head 5.30734 -6.60703 1.69956
rclavicle 6.04305e-014 -1.74931e-014
rhumerus -9.31564 -32.3167 -54.614
rradius 66.5676
rwrist 30.1259
rhand -33.669 -10.6906
rfingers 7.12502
rthumb -6.86006 -40.5594
lclavicle 6.04305e-014 -1.74931e-014
lhumerus -49.0956 32.0716 53.6735
lradius 59.8853
lwrist -4.24022
lhand -30.0007 42.7679
lfingers 7.12502
lthumb -3.31815 72.7218
rfemur -74.108 -18.5702 14.8906
rtibia 81.3461
rfoot -8.38602 2.11098
rtoes 4.45775
lfemur -32.7691 -21.8149 -6.72595
ltibia 73.9191
lfoot -25.0129 -15.124
ltoes -34.388
